#N canvas 675 172 1076 568 12;
#N canvas 1055 495 450 300 ai_magic 0;
#X obj 22 49 loadbang;
#X msg 22 74 set 4096 1 0.5;
#X obj 22 99 block~;
#X obj 173 52 inlet~;
#X obj 135 154 wavae_encoder~, f 35;
#X obj 66 234 tabwrite~ latent;
#X obj 22 185 metro 100;
#X obj 237 49 inlet;
#X connect 0 0 1 0;
#X connect 1 0 2 0;
#X connect 3 0 4 0;
#X connect 4 0 5 0;
#X connect 6 0 5 0;
#X connect 7 0 6 0;
#X restore 331 274 pd ai_magic;
#X obj 198 137 adc~;
#X obj 378 156 tgl 15 0 empty empty empty 17 7 0 10 -262144 -1 -1 1
1;
#X connect 1 0 0 0;
#X connect 2 0 0 1;
