#N canvas 474 361 1206 719 12;
#N canvas 566 155 1050 711 encoder 1;
#X obj 210 38 loadbang;
#X obj 210 88 block~;
#X obj 131 125 wavae_encoder~, f 36;
#X obj 137 71 inlet~;
#X obj 46 199 outlet~;
#X obj 56 209 outlet~;
#X obj 66 219 outlet~;
#X obj 76 229 outlet~;
#X obj 86 239 outlet~;
#X obj 96 249 outlet~;
#X obj 106 259 outlet~;
#X obj 116 269 outlet~;
#X obj 242 197 outlet~;
#X obj 252 207 outlet~;
#X obj 262 217 outlet~;
#X obj 272 227 outlet~;
#X obj 282 237 outlet~;
#X obj 292 247 outlet~;
#X obj 302 257 outlet~;
#X obj 312 267 outlet~;
#X msg 210 63 set 512 1 0.5;
#X connect 0 0 20 0;
#X connect 2 0 4 0;
#X connect 2 1 5 0;
#X connect 2 2 6 0;
#X connect 2 3 7 0;
#X connect 2 4 8 0;
#X connect 2 5 9 0;
#X connect 2 6 10 0;
#X connect 2 7 11 0;
#X connect 2 8 12 0;
#X connect 2 9 13 0;
#X connect 2 10 14 0;
#X connect 2 11 15 0;
#X connect 2 12 16 0;
#X connect 2 13 17 0;
#X connect 2 14 18 0;
#X connect 2 15 19 0;
#X connect 3 0 2 0;
#X connect 20 0 1 0;
#X restore 96 128 pd encoder;
#X f 28;
