#N canvas 862 326 818 552 12;
#X obj 90 268 mod 2;
#X obj 92 205 f 0;
#X obj 94 129 route 127;
#X msg 138 200 1;
#X obj 95 164 t b b;
#X obj 109 232 +;
#X obj 102 59 inlet;
#X obj 96 316 outlet;
#X connect 0 0 1 1;
#X connect 0 0 7 0;
#X connect 1 0 5 0;
#X connect 2 0 4 0;
#X connect 3 0 5 1;
#X connect 4 0 1 0;
#X connect 4 1 3 0;
#X connect 5 0 0 0;
#X connect 6 0 2 0;
